<svg width="310" height="72" viewBox="0 0 310 72" fill="none" xmlns="http://www.w3.org/2000/svg">
<rect x="0.5" y="0.5" width="122" height="32" rx="16" fill="#1A1A1A"/>
<rect x="0.5" y="0.5" width="122" height="32" rx="16" stroke="#262626"/>
<g clip-path="url(#clip0_139_8312)">
<g clip-path="url(#clip1_139_8312)">
<path d="M24.0119 23.9597C21.0137 23.9597 18.0163 23.9597 15.0181 23.9597C14.7149 23.9597 14.5748 24.0984 14.5748 24.3977C14.5748 24.4752 14.5787 24.5527 14.574 24.6295C14.5677 24.7225 14.5583 24.8155 14.5409 24.9062C14.4764 25.2372 14.1591 25.5023 13.7796 25.4984C13.3985 25.4946 13.0828 25.2116 13.0253 24.8481C13.0119 24.7628 13.0048 24.6752 13.0048 24.5891C13.004 22.8279 12.9922 21.0659 13.0088 19.3046C13.0182 18.2783 13.3977 17.3853 14.1252 16.6419C14.5669 16.1907 15.0921 15.8698 15.6928 15.6651C16.1652 15.5046 16.6534 15.4558 17.151 15.4558C21.7625 15.4574 26.3739 15.4535 30.9854 15.4589C32.3365 15.4605 33.4309 15.9969 34.2419 17.0636C34.6403 17.5884 34.8781 18.1845 34.9592 18.8357C34.9867 19.055 34.9985 19.2783 34.9993 19.5C35.0025 21.2101 35.0017 22.9202 35.0009 24.6302C35.0009 24.8977 34.934 25.1411 34.7104 25.3178C34.4741 25.5046 34.2104 25.5535 33.9293 25.4395C33.66 25.3295 33.49 25.1271 33.4514 24.838C33.4317 24.6922 33.4341 24.5426 33.4301 24.3953C33.4238 24.1574 33.3238 24.0139 33.1239 23.9698C33.0798 23.9597 33.0333 23.9605 32.9876 23.9605C29.9965 23.9605 27.0054 23.9605 24.0135 23.9605L24.0119 23.9597Z" fill="white"/>
<path d="M23.902 8.5C25.8467 8.5 27.7907 8.5 29.7346 8.5C30.3858 8.5 30.9944 8.64341 31.5195 9.03953C32.1951 9.54884 32.5895 10.2194 32.6226 11.0612C32.651 11.7752 32.6384 12.4907 32.6415 13.2054C32.6439 13.6659 32.6415 14.1264 32.6415 14.5868C32.6415 14.6279 32.6391 14.6713 32.6281 14.7109C32.5943 14.8357 32.5258 14.8853 32.3966 14.8612C32.2557 14.8349 32.1195 14.7783 31.9786 14.7628C31.6471 14.7271 31.3148 14.7023 30.9818 14.6853C30.7597 14.6736 30.6913 14.6341 30.6598 14.4194C30.559 13.7388 29.9189 13.1264 29.1 13.1357C28.1867 13.1457 27.2734 13.138 26.3609 13.138C25.6814 13.138 25.1011 13.5364 24.8704 14.1643C24.8373 14.2543 24.8247 14.3519 24.8074 14.4465C24.7751 14.6163 24.7114 14.6798 24.5397 14.6822C24.1799 14.686 23.8193 14.686 23.4595 14.6822C23.2941 14.6806 23.2288 14.6163 23.1989 14.4279C23.1571 14.1636 23.0532 13.9279 22.8831 13.7209C22.5753 13.3457 22.1769 13.1419 21.6856 13.1395C20.7431 13.1349 19.8007 13.1372 18.8575 13.1388C18.0654 13.1395 17.4457 13.7488 17.345 14.4178C17.3127 14.6341 17.2473 14.6721 17.0253 14.686C16.6576 14.7101 16.2899 14.7442 15.923 14.7829C15.8104 14.7946 15.7026 14.8426 15.5908 14.8612C15.4703 14.8806 15.4144 14.8403 15.3805 14.724C15.3672 14.6783 15.3609 14.6295 15.3609 14.5814C15.3601 13.4767 15.3451 12.3721 15.364 11.2674C15.3837 10.1116 15.9262 9.26202 16.9875 8.74806C17.408 8.54574 17.8638 8.5 18.3252 8.5C20.1841 8.5 22.0431 8.5 23.902 8.5Z" fill="white"/>
</g>
</g>
<path d="M42.774 21V18.354H38.56V17.164L42.48 11.2H43.95V17.178H44.923V18.354H43.95V21H42.774ZM39.939 17.164L42.774 17.178L42.753 12.852L39.939 17.164ZM46.6056 16.212H51.0856V17.388H46.6056V16.212ZM52.7716 21V11.2H56.1526C56.638 11.2 57.079 11.3003 57.4756 11.501C57.877 11.697 58.1943 11.984 58.4276 12.362C58.661 12.74 58.7776 13.1927 58.7776 13.72C58.7776 14.0047 58.7286 14.28 58.6306 14.546C58.5373 14.8073 58.4066 15.0337 58.2386 15.225C58.0753 15.4117 57.8886 15.5377 57.6786 15.603C57.9726 15.6777 58.2223 15.8107 58.4276 16.002C58.633 16.1887 58.7986 16.408 58.9246 16.66C59.0553 16.912 59.1486 17.1757 59.2046 17.451C59.2606 17.7263 59.2886 17.9923 59.2886 18.249C59.2886 18.7903 59.165 19.2687 58.9176 19.684C58.675 20.0947 58.3483 20.4167 57.9376 20.65C57.527 20.8833 57.0743 21 56.5796 21H52.7716ZM53.9476 19.964H56.4746C56.7966 19.964 57.0883 19.8823 57.3496 19.719C57.6156 19.551 57.828 19.3223 57.9866 19.033C58.1453 18.7437 58.2246 18.417 58.2246 18.053C58.2246 17.731 58.1453 17.4277 57.9866 17.143C57.828 16.8537 57.6156 16.6203 57.3496 16.443C57.0883 16.2657 56.7966 16.177 56.4746 16.177H53.9476V19.964ZM53.9476 15.162H56.0406C56.47 15.162 56.8363 15.036 57.1396 14.784C57.4476 14.5273 57.6016 14.1703 57.6016 13.713C57.6016 13.2183 57.4476 12.8497 57.1396 12.607C56.8363 12.3597 56.47 12.236 56.0406 12.236H53.9476V15.162ZM63.4669 21.182C62.8229 21.182 62.2349 21.0163 61.7029 20.685C61.1755 20.3537 60.7532 19.9103 60.4359 19.355C60.1232 18.795 59.9669 18.1767 59.9669 17.5C59.9669 16.9867 60.0579 16.5083 60.2399 16.065C60.4219 15.617 60.6715 15.225 60.9889 14.889C61.3109 14.5483 61.6842 14.2823 62.1089 14.091C62.5335 13.8997 62.9862 13.804 63.4669 13.804C63.9942 13.804 64.4772 13.9113 64.9159 14.126C65.3592 14.336 65.7372 14.63 66.0499 15.008C66.3672 15.386 66.6029 15.8247 66.7569 16.324C66.9155 16.8233 66.9739 17.3577 66.9319 17.927H61.2199C61.2759 18.3237 61.4065 18.6783 61.6119 18.991C61.8172 19.299 62.0785 19.544 62.3959 19.726C62.7179 19.908 63.0749 20.0013 63.4669 20.006C63.8869 20.006 64.2672 19.8987 64.6079 19.684C64.9485 19.4647 65.2239 19.166 65.4339 18.788L66.6309 19.068C66.3509 19.6887 65.9285 20.1973 65.3639 20.594C64.7992 20.986 64.1669 21.182 63.4669 21.182ZM61.1849 17.003H65.7489C65.7115 16.611 65.5855 16.254 65.3709 15.932C65.1562 15.6053 64.8832 15.344 64.5519 15.148C64.2205 14.952 63.8589 14.854 63.4669 14.854C63.0749 14.854 62.7155 14.9497 62.3889 15.141C62.0622 15.3323 61.7915 15.5913 61.5769 15.918C61.3669 16.24 61.2362 16.6017 61.1849 17.003ZM73.7055 10.5H74.8815V21H73.7055V19.81C73.4675 20.2207 73.1478 20.552 72.7465 20.804C72.3451 21.056 71.8738 21.182 71.3325 21.182C70.8238 21.182 70.3478 21.0863 69.9045 20.895C69.4611 20.7037 69.0691 20.44 68.7285 20.104C68.3925 19.7633 68.1288 19.3713 67.9375 18.928C67.7461 18.4847 67.6505 18.0087 67.6505 17.5C67.6505 16.9913 67.7461 16.5153 67.9375 16.072C68.1288 15.624 68.3925 15.232 68.7285 14.896C69.0691 14.5553 69.4611 14.2893 69.9045 14.098C70.3478 13.9067 70.8238 13.811 71.3325 13.811C71.8738 13.811 72.3451 13.937 72.7465 14.189C73.1478 14.441 73.4675 14.7723 73.7055 15.183V10.5ZM71.3465 20.041C71.8085 20.041 72.2075 19.929 72.5435 19.705C72.8841 19.4763 73.1455 19.1683 73.3275 18.781C73.5141 18.3937 73.6075 17.9667 73.6075 17.5C73.6075 17.024 73.5141 16.5947 73.3275 16.212C73.1408 15.8247 72.8771 15.519 72.5365 15.295C72.2005 15.0663 71.8038 14.952 71.3465 14.952C70.8845 14.952 70.4645 15.0663 70.0865 15.295C69.7131 15.5237 69.4145 15.8317 69.1905 16.219C68.9665 16.6017 68.8545 17.0287 68.8545 17.5C68.8545 17.9713 68.9688 18.4007 69.1975 18.788C69.4261 19.1707 69.7295 19.4763 70.1075 19.705C70.4855 19.929 70.8985 20.041 71.3465 20.041ZM76.5607 21V14H77.7367V14.875C77.984 14.5483 78.2967 14.2893 78.6747 14.098C79.0527 13.902 79.4634 13.804 79.9067 13.804C80.1774 13.804 80.4387 13.839 80.6907 13.909L80.2147 15.085C80.0234 15.0243 79.8367 14.994 79.6547 14.994C79.3047 14.994 78.9827 15.0803 78.6887 15.253C78.3994 15.421 78.1684 15.6497 77.9957 15.939C77.823 16.2283 77.7367 16.5503 77.7367 16.905V21H76.5607ZM84.2755 21.182C83.6315 21.182 83.0435 21.0163 82.5115 20.685C81.9841 20.3537 81.5618 19.9103 81.2445 19.355C80.9318 18.795 80.7755 18.1767 80.7755 17.5C80.7755 16.9867 80.8665 16.5083 81.0485 16.065C81.2305 15.617 81.4801 15.225 81.7975 14.889C82.1195 14.5483 82.4928 14.2823 82.9175 14.091C83.3421 13.8997 83.7948 13.804 84.2755 13.804C84.9195 13.804 85.5051 13.9697 86.0325 14.301C86.5645 14.6323 86.9868 15.078 87.2995 15.638C87.6168 16.198 87.7755 16.8187 87.7755 17.5C87.7755 18.0087 87.6845 18.4847 87.5025 18.928C87.3205 19.3713 87.0685 19.7633 86.7465 20.104C86.4291 20.44 86.0581 20.7037 85.6335 20.895C85.2135 21.0863 84.7608 21.182 84.2755 21.182ZM84.2755 20.006C84.7141 20.006 85.1085 19.8917 85.4585 19.663C85.8131 19.4297 86.0908 19.124 86.2915 18.746C86.4968 18.3633 86.5995 17.948 86.5995 17.5C86.5995 17.0427 86.4945 16.6227 86.2845 16.24C86.0791 15.8573 85.8015 15.5517 85.4515 15.323C85.1015 15.0943 84.7095 14.98 84.2755 14.98C83.8368 14.98 83.4425 15.0967 83.0925 15.33C82.7425 15.5587 82.4648 15.8643 82.2595 16.247C82.0541 16.6297 81.9515 17.0473 81.9515 17.5C81.9515 17.9667 82.0565 18.3913 82.2665 18.774C82.4765 19.152 82.7588 19.453 83.1135 19.677C83.4681 19.8963 83.8555 20.006 84.2755 20.006ZM91.9727 21.182C91.3287 21.182 90.7407 21.0163 90.2087 20.685C89.6814 20.3537 89.2591 19.9103 88.9417 19.355C88.6291 18.795 88.4727 18.1767 88.4727 17.5C88.4727 16.9867 88.5637 16.5083 88.7457 16.065C88.9277 15.617 89.1774 15.225 89.4947 14.889C89.8167 14.5483 90.1901 14.2823 90.6147 14.091C91.0394 13.8997 91.4921 13.804 91.9727 13.804C92.6167 13.804 93.2024 13.9697 93.7297 14.301C94.2617 14.6323 94.6841 15.078 94.9967 15.638C95.3141 16.198 95.4727 16.8187 95.4727 17.5C95.4727 18.0087 95.3817 18.4847 95.1997 18.928C95.0177 19.3713 94.7657 19.7633 94.4437 20.104C94.1264 20.44 93.7554 20.7037 93.3307 20.895C92.9107 21.0863 92.4581 21.182 91.9727 21.182ZM91.9727 20.006C92.4114 20.006 92.8057 19.8917 93.1557 19.663C93.5104 19.4297 93.7881 19.124 93.9887 18.746C94.1941 18.3633 94.2967 17.948 94.2967 17.5C94.2967 17.0427 94.1917 16.6227 93.9817 16.24C93.7764 15.8573 93.4987 15.5517 93.1487 15.323C92.7987 15.0943 92.4067 14.98 91.9727 14.98C91.5341 14.98 91.1397 15.0967 90.7897 15.33C90.4397 15.5587 90.1621 15.8643 89.9567 16.247C89.7514 16.6297 89.6487 17.0473 89.6487 17.5C89.6487 17.9667 89.7537 18.3913 89.9637 18.774C90.1737 19.152 90.4561 19.453 90.8107 19.677C91.1654 19.8963 91.5527 20.006 91.9727 20.006ZM96.631 21V14H97.807V14.875C98.0543 14.5483 98.3647 14.2893 98.738 14.098C99.116 13.902 99.5267 13.804 99.97 13.804C100.488 13.804 100.962 13.93 101.391 14.182C101.82 14.434 102.159 14.7677 102.406 15.183C102.653 14.7677 102.989 14.434 103.414 14.182C103.843 13.93 104.315 13.804 104.828 13.804C105.355 13.804 105.834 13.9323 106.263 14.189C106.692 14.441 107.033 14.7817 107.285 15.211C107.542 15.6403 107.67 16.1187 107.67 16.646V21H106.494V16.926C106.494 16.5807 106.41 16.261 106.242 15.967C106.074 15.673 105.848 15.4373 105.563 15.26C105.278 15.0827 104.963 14.994 104.618 14.994C104.273 14.994 103.958 15.078 103.673 15.246C103.388 15.4093 103.162 15.638 102.994 15.932C102.826 16.2213 102.742 16.5527 102.742 16.926V21H101.566V16.926C101.566 16.5527 101.482 16.2213 101.314 15.932C101.146 15.638 100.917 15.4093 100.628 15.246C100.343 15.078 100.028 14.994 99.683 14.994C99.3423 14.994 99.0273 15.0827 98.738 15.26C98.4533 15.4373 98.227 15.673 98.059 15.967C97.891 16.261 97.807 16.5807 97.807 16.926V21H96.631Z" fill="white"/>
<rect x="129.5" y="0.5" width="125" height="32" rx="16" fill="#1A1A1A"/>
<rect x="129.5" y="0.5" width="125" height="32" rx="16" stroke="#262626"/>
<g clip-path="url(#clip2_139_8312)">
<g clip-path="url(#clip3_139_8312)">
<path d="M143.269 20.2616H153.11V22.0697H159.261V20.2655H161.705C161.864 22.4158 161.876 24.3304 159.671 25.7897C159.644 25.8075 159.622 25.8318 159.562 25.885C159.834 26.1103 160.101 26.3329 160.366 26.5529C160.008 26.8945 159.721 27.169 159.392 27.4842C159.102 27.1848 158.788 26.8373 158.446 26.5207C158.345 26.4275 158.167 26.3894 158.021 26.3802C157.783 26.3657 157.541 26.4045 157.301 26.4052C154.106 26.4071 150.91 26.4065 147.715 26.4065C147.562 26.4065 147.398 26.436 147.257 26.3933C146.831 26.2653 146.56 26.4629 146.306 26.7684C146.09 27.0284 145.844 27.2629 145.619 27.5007C145.315 27.1808 145.039 26.8918 144.735 26.5707C144.939 26.39 145.198 26.1602 145.49 25.9014C145.289 25.7576 145.139 25.6577 144.996 25.5474C143.928 24.7244 143.351 23.6329 143.275 22.2924C143.238 21.6284 143.269 20.9604 143.269 20.2616H143.269Z" fill="white"/>
<path d="M143.276 15.2871C143.27 15.1682 143.261 15.0612 143.261 14.9541C143.26 13.2136 143.258 11.4738 143.261 9.73333C143.264 7.82078 144.591 6.48619 146.501 6.49998C147.142 6.50458 147.803 6.49145 148.419 6.63659C149.512 6.89471 150.2 7.65264 150.532 8.72057C150.597 8.92811 150.68 9.0286 150.908 9.09034C152.194 9.43909 153.096 10.641 153.113 11.9822C153.115 12.1982 153.113 12.4143 153.113 12.6488H147.026C146.735 11.1139 147.57 9.52973 149.313 9.03517C149.156 8.35014 148.481 7.77217 147.773 7.74722C147.238 7.72817 146.701 7.7262 146.165 7.74722C145.243 7.78334 144.5 8.63059 144.497 9.64663C144.49 11.3976 144.495 13.1493 144.495 14.9002C144.495 15.0198 144.495 15.1393 144.495 15.2864H143.274L143.276 15.2871Z" fill="white"/>
<path d="M153.093 19.0327C152.964 19.0327 152.867 19.0327 152.771 19.0327C149.643 19.0327 146.515 19.0334 143.387 19.0321C142.714 19.0321 142.23 18.7135 142.06 18.1697C141.804 17.3514 142.384 16.5632 143.268 16.5514C144.208 16.5389 145.149 16.5481 146.089 16.5481C148.299 16.5481 150.507 16.5481 152.717 16.5481C152.835 16.5481 152.953 16.5481 153.093 16.5481V19.0321V19.0327Z" fill="white"/>
<path d="M158.024 20.8711H154.363C154.358 20.7555 154.348 20.6504 154.348 20.5453C154.346 19.2771 154.346 18.0082 154.348 16.7399C154.348 15.8224 154.849 15.318 155.763 15.3141C156.102 15.3128 156.441 15.3055 156.78 15.316C157.541 15.3403 158.038 15.852 158.04 16.6152C158.044 17.9386 158.041 19.2613 158.04 20.5848C158.04 20.6708 158.031 20.7562 158.024 20.8711Z" fill="white"/>
<path d="M159.283 19.0209V16.5482C159.878 16.5482 160.465 16.5462 161.051 16.5488C161.356 16.5501 161.668 16.5252 161.967 16.5744C162.619 16.6821 163.043 17.2161 163.016 17.8394C162.99 18.4509 162.539 18.9756 161.899 19.0091C161.039 19.0544 160.176 19.0203 159.284 19.0203L159.283 19.0209Z" fill="white"/>
</g>
</g>
<path d="M170.472 21.182C169.879 21.182 169.352 21.049 168.89 20.783C168.433 20.5123 168.073 20.153 167.812 19.705C167.551 19.2523 167.42 18.7507 167.42 18.2H168.596C168.596 18.5313 168.673 18.8347 168.827 19.11C168.981 19.3807 169.198 19.5977 169.478 19.761C169.758 19.9243 170.089 20.006 170.472 20.006C170.803 20.006 171.111 19.9243 171.396 19.761C171.685 19.5977 171.919 19.3807 172.096 19.11C172.273 18.8347 172.362 18.5313 172.362 18.2C172.362 17.7847 172.255 17.4393 172.04 17.164C171.83 16.884 171.536 16.6763 171.158 16.541C170.785 16.401 170.358 16.331 169.877 16.331V15.386C170.54 15.386 171.069 15.2483 171.466 14.973C171.867 14.6977 172.068 14.2917 172.068 13.755C172.068 13.4703 171.991 13.209 171.837 12.971C171.683 12.733 171.48 12.544 171.228 12.404C170.981 12.2593 170.715 12.187 170.43 12.187C170.141 12.187 169.863 12.2593 169.597 12.404C169.331 12.544 169.114 12.733 168.946 12.971C168.778 13.209 168.694 13.4703 168.694 13.755H167.518C167.518 13.377 167.595 13.0223 167.749 12.691C167.908 12.3597 168.122 12.068 168.393 11.816C168.668 11.564 168.979 11.368 169.324 11.228C169.669 11.0833 170.033 11.011 170.416 11.011C170.915 11.011 171.38 11.1347 171.809 11.382C172.238 11.6293 172.584 11.9607 172.845 12.376C173.111 12.7913 173.244 13.251 173.244 13.755C173.244 14.2077 173.13 14.6253 172.901 15.008C172.672 15.3907 172.362 15.659 171.97 15.813C172.311 15.9297 172.598 16.1117 172.831 16.359C173.064 16.6017 173.239 16.8817 173.356 17.199C173.477 17.5163 173.538 17.85 173.538 18.2C173.538 18.746 173.396 19.2453 173.111 19.698C172.831 20.1507 172.458 20.5123 171.991 20.783C171.529 21.049 171.023 21.182 170.472 21.182ZM174.799 16.212H179.279V17.388H174.799V16.212ZM180.965 21V11.2H184.346C184.831 11.2 185.272 11.3003 185.669 11.501C186.07 11.697 186.388 11.984 186.621 12.362C186.854 12.74 186.971 13.1927 186.971 13.72C186.971 14.0047 186.922 14.28 186.824 14.546C186.731 14.8073 186.6 15.0337 186.432 15.225C186.269 15.4117 186.082 15.5377 185.872 15.603C186.166 15.6777 186.416 15.8107 186.621 16.002C186.826 16.1887 186.992 16.408 187.118 16.66C187.249 16.912 187.342 17.1757 187.398 17.451C187.454 17.7263 187.482 17.9923 187.482 18.249C187.482 18.7903 187.358 19.2687 187.111 19.684C186.868 20.0947 186.542 20.4167 186.131 20.65C185.72 20.8833 185.268 21 184.773 21H180.965ZM182.141 19.964H184.668C184.99 19.964 185.282 19.8823 185.543 19.719C185.809 19.551 186.021 19.3223 186.18 19.033C186.339 18.7437 186.418 18.417 186.418 18.053C186.418 17.731 186.339 17.4277 186.18 17.143C186.021 16.8537 185.809 16.6203 185.543 16.443C185.282 16.2657 184.99 16.177 184.668 16.177H182.141V19.964ZM182.141 15.162H184.234C184.663 15.162 185.03 15.036 185.333 14.784C185.641 14.5273 185.795 14.1703 185.795 13.713C185.795 13.2183 185.641 12.8497 185.333 12.607C185.03 12.3597 184.663 12.236 184.234 12.236H182.141V15.162ZM194.208 14H195.384V21H194.208L194.159 19.817C193.94 20.223 193.637 20.552 193.249 20.804C192.867 21.056 192.409 21.182 191.877 21.182C191.364 21.182 190.883 21.0863 190.435 20.895C189.987 20.699 189.591 20.4307 189.245 20.09C188.905 19.7447 188.639 19.348 188.447 18.9C188.256 18.452 188.16 17.969 188.16 17.451C188.16 16.9517 188.254 16.4803 188.44 16.037C188.627 15.5937 188.886 15.2063 189.217 14.875C189.553 14.539 189.941 14.2777 190.379 14.091C190.818 13.8997 191.289 13.804 191.793 13.804C192.344 13.804 192.827 13.9347 193.242 14.196C193.658 14.4527 193.994 14.7863 194.25 15.197L194.208 14ZM191.856 20.041C192.318 20.041 192.717 19.929 193.053 19.705C193.394 19.4763 193.655 19.1683 193.837 18.781C194.024 18.3937 194.117 17.9667 194.117 17.5C194.117 17.024 194.024 16.5947 193.837 16.212C193.651 15.8247 193.387 15.519 193.046 15.295C192.71 15.0663 192.314 14.952 191.856 14.952C191.394 14.952 190.974 15.0663 190.596 15.295C190.218 15.5237 189.917 15.8317 189.693 16.219C189.474 16.6017 189.364 17.0287 189.364 17.5C189.364 17.9713 189.479 18.4007 189.707 18.788C189.936 19.1707 190.239 19.4763 190.617 19.705C190.995 19.929 191.408 20.041 191.856 20.041ZM200.409 15.176H198.82L198.813 21H197.637L197.644 15.176H196.44V14H197.644L197.637 11.802H198.813L198.82 14H200.409V15.176ZM207.852 16.646V21H206.676V16.905C206.676 16.5503 206.59 16.2283 206.417 15.939C206.245 15.6497 206.014 15.421 205.724 15.253C205.435 15.0803 205.113 14.994 204.758 14.994C204.408 14.994 204.086 15.0803 203.792 15.253C203.503 15.421 203.272 15.6497 203.099 15.939C202.927 16.2283 202.84 16.5503 202.84 16.905V21H201.664V10.5H202.84V14.875C203.088 14.5483 203.4 14.2893 203.778 14.098C204.156 13.902 204.567 13.804 205.01 13.804C205.533 13.804 206.009 13.9323 206.438 14.189C206.872 14.441 207.215 14.7817 207.467 15.211C207.724 15.6403 207.852 16.1187 207.852 16.646ZM209.252 21V14H210.428V14.875C210.675 14.5483 210.988 14.2893 211.366 14.098C211.744 13.902 212.155 13.804 212.598 13.804C212.869 13.804 213.13 13.839 213.382 13.909L212.906 15.085C212.715 15.0243 212.528 14.994 212.346 14.994C211.996 14.994 211.674 15.0803 211.38 15.253C211.091 15.421 210.86 15.6497 210.687 15.939C210.514 16.2283 210.428 16.5503 210.428 16.905V21H209.252ZM216.967 21.182C216.323 21.182 215.735 21.0163 215.203 20.685C214.676 20.3537 214.253 19.9103 213.936 19.355C213.623 18.795 213.467 18.1767 213.467 17.5C213.467 16.9867 213.558 16.5083 213.74 16.065C213.922 15.617 214.172 15.225 214.489 14.889C214.811 14.5483 215.184 14.2823 215.609 14.091C216.034 13.8997 216.486 13.804 216.967 13.804C217.611 13.804 218.197 13.9697 218.724 14.301C219.256 14.6323 219.678 15.078 219.991 15.638C220.308 16.198 220.467 16.8187 220.467 17.5C220.467 18.0087 220.376 18.4847 220.194 18.928C220.012 19.3713 219.76 19.7633 219.438 20.104C219.121 20.44 218.75 20.7037 218.325 20.895C217.905 21.0863 217.452 21.182 216.967 21.182ZM216.967 20.006C217.406 20.006 217.8 19.8917 218.15 19.663C218.505 19.4297 218.782 19.124 218.983 18.746C219.188 18.3633 219.291 17.948 219.291 17.5C219.291 17.0427 219.186 16.6227 218.976 16.24C218.771 15.8573 218.493 15.5517 218.143 15.323C217.793 15.0943 217.401 14.98 216.967 14.98C216.528 14.98 216.134 15.0967 215.784 15.33C215.434 15.5587 215.156 15.8643 214.951 16.247C214.746 16.6297 214.643 17.0473 214.643 17.5C214.643 17.9667 214.748 18.3913 214.958 18.774C215.168 19.152 215.45 19.453 215.805 19.677C216.16 19.8963 216.547 20.006 216.967 20.006ZM224.664 21.182C224.02 21.182 223.432 21.0163 222.9 20.685C222.373 20.3537 221.95 19.9103 221.633 19.355C221.32 18.795 221.164 18.1767 221.164 17.5C221.164 16.9867 221.255 16.5083 221.437 16.065C221.619 15.617 221.869 15.225 222.186 14.889C222.508 14.5483 222.881 14.2823 223.306 14.091C223.731 13.8997 224.183 13.804 224.664 13.804C225.308 13.804 225.894 13.9697 226.421 14.301C226.953 14.6323 227.375 15.078 227.688 15.638C228.005 16.198 228.164 16.8187 228.164 17.5C228.164 18.0087 228.073 18.4847 227.891 18.928C227.709 19.3713 227.457 19.7633 227.135 20.104C226.818 20.44 226.447 20.7037 226.022 20.895C225.602 21.0863 225.149 21.182 224.664 21.182ZM224.664 20.006C225.103 20.006 225.497 19.8917 225.847 19.663C226.202 19.4297 226.479 19.124 226.68 18.746C226.885 18.3633 226.988 17.948 226.988 17.5C226.988 17.0427 226.883 16.6227 226.673 16.24C226.468 15.8573 226.19 15.5517 225.84 15.323C225.49 15.0943 225.098 14.98 224.664 14.98C224.225 14.98 223.831 15.0967 223.481 15.33C223.131 15.5587 222.853 15.8643 222.648 16.247C222.443 16.6297 222.34 17.0473 222.34 17.5C222.34 17.9667 222.445 18.3913 222.655 18.774C222.865 19.152 223.147 19.453 223.502 19.677C223.857 19.8963 224.244 20.006 224.664 20.006ZM229.322 21V14H230.498V14.875C230.746 14.5483 231.056 14.2893 231.429 14.098C231.807 13.902 232.218 13.804 232.661 13.804C233.179 13.804 233.653 13.93 234.082 14.182C234.512 14.434 234.85 14.7677 235.097 15.183C235.345 14.7677 235.681 14.434 236.105 14.182C236.535 13.93 237.006 13.804 237.519 13.804C238.047 13.804 238.525 13.9323 238.954 14.189C239.384 14.441 239.724 14.7817 239.976 15.211C240.233 15.6403 240.361 16.1187 240.361 16.646V21H239.185V16.926C239.185 16.5807 239.101 16.261 238.933 15.967C238.765 15.673 238.539 15.4373 238.254 15.26C237.97 15.0827 237.655 14.994 237.309 14.994C236.964 14.994 236.649 15.078 236.364 15.246C236.08 15.4093 235.853 15.638 235.685 15.932C235.517 16.2213 235.433 16.5527 235.433 16.926V21H234.257V16.926C234.257 16.5527 234.173 16.2213 234.005 15.932C233.837 15.638 233.609 15.4093 233.319 15.246C233.035 15.078 232.72 14.994 232.374 14.994C232.034 14.994 231.719 15.0827 231.429 15.26C231.145 15.4373 230.918 15.673 230.75 15.967C230.582 16.261 230.498 16.5807 230.498 16.926V21H229.322Z" fill="white"/>
<rect x="0.5" y="39.5" width="77" height="32" rx="16" fill="#1A1A1A"/>
<rect x="0.5" y="39.5" width="77" height="32" rx="16" stroke="#262626"/>
<path fill-rule="evenodd" clip-rule="evenodd" d="M18 62V49H17.75C17.3358 49 17 48.6642 17 48.25C17 47.8358 17.3358 47.5 17.75 47.5H30.25C30.6642 47.5 31 47.8358 31 48.25C31 48.6642 30.6642 49 30.25 49H30V62H30.25C30.6642 62 31 62.3358 31 62.75C31 63.1642 30.6642 63.5 30.25 63.5H26.75C26.3358 63.5 26 63.1642 26 62.75V60.25C26 59.8358 25.6642 59.5 25.25 59.5H22.75C22.3358 59.5 22 59.8358 22 60.25V62.75C22 63.1642 21.6642 63.5 21.25 63.5H17.75C17.3358 63.5 17 63.1642 17 62.75C17 62.3358 17.3358 62 17.75 62H18ZM21 51C21 50.7239 21.2239 50.5 21.5 50.5H22.5C22.7761 50.5 23 50.7239 23 51V52C23 52.2761 22.7761 52.5 22.5 52.5H21.5C21.2239 52.5 21 52.2761 21 52V51ZM21.5 54.5C21.2239 54.5 21 54.7239 21 55V56C21 56.2761 21.2239 56.5 21.5 56.5H22.5C22.7761 56.5 23 56.2761 23 56V55C23 54.7239 22.7761 54.5 22.5 54.5H21.5ZM25 51C25 50.7239 25.2239 50.5 25.5 50.5H26.5C26.7761 50.5 27 50.7239 27 51V52C27 52.2761 26.7761 52.5 26.5 52.5H25.5C25.2239 52.5 25 52.2761 25 52V51ZM25.5 54.5C25.2239 54.5 25 54.7239 25 55V56C25 56.2761 25.2239 56.5 25.5 56.5H26.5C26.7761 56.5 27 56.2761 27 56V55C27 54.7239 26.7761 54.5 26.5 54.5H25.5Z" fill="white"/>
<path d="M41.948 60L38.392 50.2H39.638L42.676 58.565L45.721 50.2H46.96L43.404 60H41.948ZM47.6994 53H48.8754V60H47.6994V53ZM48.3014 51.859C48.1147 51.859 47.9584 51.7983 47.8324 51.677C47.7064 51.5557 47.6434 51.404 47.6434 51.222C47.6434 51.04 47.7064 50.8883 47.8324 50.767C47.9584 50.6457 48.1124 50.585 48.2944 50.585C48.4764 50.585 48.6304 50.6457 48.7564 50.767C48.8824 50.8883 48.9454 51.04 48.9454 51.222C48.9454 51.404 48.8824 51.5557 48.7564 51.677C48.635 51.7983 48.4834 51.859 48.3014 51.859ZM50.5978 60V49.5H51.7738V60H50.5978ZM53.4552 60V49.5H54.6312V60H53.4552ZM61.8723 53H63.0483V60H61.8723L61.8233 58.817C61.604 59.223 61.3006 59.552 60.9133 59.804C60.5306 60.056 60.0733 60.182 59.5413 60.182C59.028 60.182 58.5473 60.0863 58.0993 59.895C57.6513 59.699 57.2546 59.4307 56.9093 59.09C56.5686 58.7447 56.3026 58.348 56.1113 57.9C55.92 57.452 55.8243 56.969 55.8243 56.451C55.8243 55.9517 55.9176 55.4803 56.1043 55.037C56.291 54.5937 56.55 54.2063 56.8813 53.875C57.2173 53.539 57.6046 53.2777 58.0433 53.091C58.482 52.8997 58.9533 52.804 59.4573 52.804C60.008 52.804 60.491 52.9347 60.9063 53.196C61.3216 53.4527 61.6576 53.7863 61.9143 54.197L61.8723 53ZM59.5203 59.041C59.9823 59.041 60.3813 58.929 60.7173 58.705C61.058 58.4763 61.3193 58.1683 61.5013 57.781C61.688 57.3937 61.7813 56.9667 61.7813 56.5C61.7813 56.024 61.688 55.5947 61.5013 55.212C61.3146 54.8247 61.051 54.519 60.7103 54.295C60.3743 54.0663 59.9776 53.952 59.5203 53.952C59.0583 53.952 58.6383 54.0663 58.2603 54.295C57.8823 54.5237 57.5813 54.8317 57.3573 55.219C57.138 55.6017 57.0283 56.0287 57.0283 56.5C57.0283 56.9713 57.1426 57.4007 57.3713 57.788C57.6 58.1707 57.9033 58.4763 58.2813 58.705C58.6593 58.929 59.0723 59.041 59.5203 59.041Z" fill="white"/>
<defs>
<clipPath id="clip0_139_8312">
<rect width="20" height="20" fill="white" transform="translate(14 6.5)"/>
</clipPath>
<clipPath id="clip1_139_8312">
<rect width="22" height="17" fill="white" transform="translate(13 8.5)"/>
</clipPath>
<clipPath id="clip2_139_8312">
<rect width="20" height="20" fill="white" transform="translate(143 6.5)"/>
</clipPath>
<clipPath id="clip3_139_8312">
<rect width="21.0171" height="21" fill="white" transform="translate(142 6.5)"/>
</clipPath>
</defs>
</svg>
